<?xml version="1.0" standalone="no"?>
<!DOCTYPE svg PUBLIC "-//W3C//DTD SVG 20010904//EN"
 "http://www.w3.org/TR/2001/REC-SVG-20010904/DTD/svg10.dtd">
<svg version="1.0" xmlns="http://www.w3.org/2000/svg"
 width="260.000000pt" height="208.000000pt" viewBox="0 0 260.000000 208.000000"
 preserveAspectRatio="xMidYMid meet">
<metadata>
Created by potrace 1.10, written by Peter Selinger 2001-2011
</metadata>
<g transform="translate(0.000000,208.000000) scale(0.100000,-0.100000)"
fill="#000000" stroke="none">
<path d="M0 1040 l0 -1040 1300 0 1300 0 0 1040 0 1040 -1300 0 -1300 0 0
-1040z m650 659 c13 -24 14 -23 -88 -140 -86 -99 -155 -230 -178 -340 -9 -42
-16 -122 -16 -184 0 -234 65 -403 216 -564 76 -80 86 -105 58 -133 -30 -31
-68 -16 -132 50 -107 109 -179 237 -221 388 -29 107 -38 358 -16 459 31 145
97 268 208 389 85 93 145 120 169 75z m1369 6 c38 -19 121 -113 181 -204 97
-146 137 -310 127 -514 -12 -233 -64 -376 -199 -543 -54 -66 -126 -124 -156
-124 -17 0 -42 30 -42 51 0 11 26 48 58 82 103 110 165 219 204 354 19 67 23
101 22 238 0 145 -2 167 -26 237 -37 111 -86 191 -177 292 -45 50 -81 97 -81
106 0 39 41 50 89 25z m-695 -156 c136 -147 181 -281 151 -449 -19 -108 -20
-102 12 -98 21 2 35 15 59 55 l31 53 26 -38 c14 -20 39 -64 54 -97 25 -54 28
-71 28 -165 0 -98 -2 -110 -32 -170 -35 -70 -104 -155 -156 -192 l-32 -23 18
25 c36 51 77 146 77 180 0 57 -11 65 -84 65 -50 0 -71 5 -93 21 -44 33 -52 72
-46 219 6 125 -5 205 -26 205 -4 0 -15 -17 -25 -37 -10 -21 -47 -82 -82 -136
-113 -173 -156 -277 -157 -382 -1 -47 5 -71 22 -100 12 -21 20 -39 18 -42 -2
-2 -30 22 -61 53 -35 36 -70 84 -93 132 -33 66 -37 83 -38 151 0 106 25 173
118 315 139 213 207 375 207 493 0 49 1 53 19 44 10 -6 48 -43 85 -82z"/>
</g>
</svg>
